<?xml version="1.0" encoding="iso-8859-1"?>
<!-- Generator: Adobe Illustrator 19.1.0, SVG Export Plug-In . SVG Version: 6.00 Build 0)  -->
<svg version="1.1" id="Capa_1" xmlns="http://www.w3.org/2000/svg" xmlns:xlink="http://www.w3.org/1999/xlink" x="0px" y="0px"
	 viewBox="0 0 216.291 216.291" style="enable-background:new 0 0 216.291 216.291;" xml:space="preserve">
<g>
	<g id="group-92svg">
		<path id="path-1_160_" style="fill:#0CB04A;" d="M129.863,102.679c-0.982,7.673-2.491,15.069-4.49,22.092l-1.434,8.704
			l24.716,6.854v-23.277L129.863,102.679z"/>
		<path id="path-2_160_" style="opacity:0.35;fill:#020403;enable-background:new    ;" d="M134.31,130.049l1.435-8.703
			c1.105-3.886,2.046-7.896,2.846-11.992l-8.728-6.675c-0.982,7.673-2.491,15.069-4.49,22.092l-1.434,8.704l24.716,6.854v-6.301
			L134.31,130.049z"/>
		<path id="path-3_160_" style="fill:#0CB04A;" d="M84.494,102.469l-22.265,14.583v23.277l27.05-6.854l-2.177-16.167
			C86.006,112.502,85.137,107.545,84.494,102.469z"/>
		<path id="path-4_159_" style="opacity:0.35;fill:#020403;enable-background:new    ;" d="M87.102,117.308
			c-1.096-4.806-1.965-9.763-2.608-14.839l-5.823,3.814c0.447,2.57,0.948,5.108,1.517,7.601l2.177,16.165l-20.136,5.104v5.176
			l27.05-6.854L87.102,117.308z"/>
		<path id="path-5_159_" style="fill:#FF3A2F;" d="M79.74,85.463c0,16.881,2.567,32.874,7.158,47.181
			c6.321,19.701,34.269,19.701,40.591,0c4.59-14.307,7.157-30.3,7.157-47.181c0-34.454-10.697-65.215-27.453-85.463
			C90.437,20.248,79.74,51.009,79.74,85.463z"/>
		<path id="path-6_157_" style="fill:#142A3B;" d="M124.215,47.656H87.826c-2.011,0-3.639-1.508-3.639-3.499
			c0-1.992,1.628-3.5,3.639-3.5h36.389c2.011,0,3.638,1.508,3.638,3.5C127.853,46.148,126.226,47.656,124.215,47.656z"/>
		<path id="path-7_156_" style="opacity:0.35;fill:#020403;enable-background:new    ;" d="M107.193,0.046v147.421
			c8.567,0,17.134-4.927,20.296-14.777c4.59-14.306,7.157-30.3,7.157-47.182C134.646,51.055,123.949,20.294,107.193,0.046z"/>
		<path id="path-8_152_" style="opacity:0.45;fill:#020403;enable-background:new    ;" d="M124.34,76.475
			c0-5.89-4.819-10.663-10.762-10.663c-5.944,0-10.763,4.773-10.763,10.663c0,5.887,4.819,10.661,10.763,10.661
			C119.521,87.136,124.34,82.362,124.34,76.475z"/>
		<path id="path-9_146_" style="fill:#EDEDED;" d="M117.426,73.05c0-5.888-4.819-10.661-10.763-10.661S95.901,67.162,95.901,73.05
			s4.818,10.662,10.762,10.662S117.426,78.938,117.426,73.05z"/>
		<path id="path-10_131_" style="fill:#FBB713;" d="M137.239,199.117h14.919c2.876,0,5.208,1.283,5.208,2.863
			c0,1.581-2.332,2.862-5.208,2.862h-0.694c-2.877,0-5.209,1.282-5.209,2.862c0,1.581,2.332,2.863,5.209,2.863h32.07
			c2.877,0,5.209,1.282,5.209,2.862s-2.332,2.862-5.209,2.862h-38.541H66.216c-2.876,0-5.208-1.282-5.208-2.862
			s2.332-2.862,5.208-2.862h8.901c2.876,0,5.208-1.282,5.208-2.863c0-1.58-2.332-2.862-5.208-2.862h-42.36
			c-2.877,0-5.209-1.281-5.209-2.862c0-1.58,2.332-2.863,5.209-2.863h10.011H137.239z"/>
		<path id="path-11_115_" style="fill:#142A3B;" d="M117.481,148.122v-4.931c0-0.951-1.178-1.721-2.632-1.721
			c-1.454,0-2.632,0.77-2.632,1.721v0.229c0,0.951-1.179,1.721-2.632,1.721c-1.454,0-2.633-0.77-2.633-1.721v-10.598
			c0-0.951-1.178-1.721-2.631-1.721c-1.454,0-2.632,0.77-2.632,1.721v12.736v26.035c0,0.95,1.178,1.721,2.632,1.721
			c1.453,0,2.631-0.771,2.631-1.721v-2.941c0-0.951,1.179-1.722,2.633-1.722c1.453,0,2.632,0.771,2.632,1.722v13.999
			c0,0.95,1.178,1.721,2.632,1.721c1.454,0,2.632-0.771,2.632-1.721v-3.308V148.122z"/>
		<path id="path-12_98_" style="fill:#142A3B;" d="M94.737,153.636v-2.421c0-0.466-0.579-0.845-1.292-0.845
			c-0.714,0-1.293,0.379-1.293,0.845v0.113c0,0.467-0.578,0.846-1.292,0.846c-0.714,0-1.293-0.379-1.293-0.846v-5.204
			c0-0.467-0.578-0.845-1.292-0.845c-0.713,0-1.291,0.378-1.291,0.845v6.254v12.783c0,0.466,0.578,0.845,1.291,0.845
			c0.714,0,1.292-0.379,1.292-0.845v-1.444c0-0.467,0.579-0.846,1.293-0.846c0.714,0,1.292,0.379,1.292,0.846v6.872
			c0,0.468,0.579,0.846,1.293,0.846c0.713,0,1.292-0.378,1.292-0.846v-1.623V153.636z"/>
		<path id="path-13_82_" style="fill:#142A3B;" d="M136.221,177.61v-2.422c0-0.466-0.578-0.845-1.291-0.845
			c-0.715,0-1.293,0.379-1.293,0.845v0.113c0,0.467-0.579,0.845-1.293,0.845c-0.713,0-1.292-0.378-1.292-0.845v-5.204
			c0-0.467-0.578-0.845-1.292-0.845c-0.713,0-1.292,0.378-1.292,0.845v6.254v12.782c0,0.468,0.579,0.846,1.292,0.846
			c0.714,0,1.292-0.378,1.292-0.846v-1.444c0-0.467,0.579-0.845,1.292-0.845c0.714,0,1.293,0.378,1.293,0.845v6.874
			c0,0.466,0.578,0.845,1.293,0.845c0.713,0,1.291-0.379,1.291-0.845v-1.625V177.61z"/>
		<path id="path-14_65_" style="fill:#142A3B;" d="M105.146,191.132c0-2.57,1.351-4.653,3.018-4.653
			c1.666,0,3.017,2.083,3.017,4.653v14.257c0,2.569-1.351,4.651-3.017,4.651c-1.667,0-3.018-2.082-3.018-4.651V191.132z"/>
		<path id="path-15_55_" style="fill:#142A3B;" d="M84.441,184.927c0-2.163,1.139-3.917,2.543-3.917
			c1.403,0,2.541,1.754,2.541,3.917v12.01c0,2.163-1.138,3.919-2.541,3.919c-1.404,0-2.543-1.756-2.543-3.919V184.927z"/>
		<path id="path-16_44_" style="fill:#142A3B;" d="M132.104,151.733c0-2.165,1.138-3.92,2.542-3.92c1.404,0,2.542,1.755,2.542,3.92
			v12.008c0,2.164-1.138,3.919-2.542,3.919c-1.404,0-2.542-1.755-2.542-3.919V151.733z"/>
	</g>
</g>
<g>
</g>
<g>
</g>
<g>
</g>
<g>
</g>
<g>
</g>
<g>
</g>
<g>
</g>
<g>
</g>
<g>
</g>
<g>
</g>
<g>
</g>
<g>
</g>
<g>
</g>
<g>
</g>
<g>
</g>
</svg>
